# xmcd
#
# Track frame offsets:
#	150
#	16832
#	33870
#	45435
#	60657
#	75267
#	88502
#	105292
#	116327
#	132452
#	150332
#	166175
#	182335
#	198147
#	219962
#	236002
#
# Disc length: 3314 seconds
#
# Revision: 3
# Processed by: cddbd v1.5.2PL0 Copyright (c) Steve Scherf et al.
# Submitted via: EasyCDDAExtractor 16.0.6.1
#
DISCID=aa0cf010
DTITLE=Varios - C-073 Heart Of the Country Vol 5
DYEAR=1900
DGENRE=Country
TTITLE0=Carlene Carter - I feel In Love
TTITLE1=Conway Twitty - Crazy In Love
TTITLE2=Desert Rose Band - Story Of Love
TTITLE3=Joan Kennedy - The Trouble With Love
TTITLE4=Lionel Cartwright - My Heart Is Set On You
TTITLE5=Tanya Tucker - It Won't Be Me
TTITLE6=Joe Diffie - If You Want Me To
TTITLE7=Rodney Crowell - Above and Beyond
TTITLE8=Dan Seals - Good Times
TTITLE9=Reba McEntire - You Lie
TTITLE10=Lee Greenwood - Just Like Me
TTITLE11=Patricia Conroy - Take Me With You
TTITLE12=Doug Stone - These Lips Don't Know How To Say Goodbye
TTITLE13=Rita Macneil - Watch Love Grow Strong
TTITLE14=Ricky Swaggs - Lovin' Only Me
TTITLE15=Holly Dunn - You Really Had Me Going
EXTD=\nA-4-5\n
EXTT0=
EXTT1=
EXTT2=
EXTT3=
EXTT4=
EXTT5=
EXTT6=
EXTT7=
EXTT8=
EXTT9=
EXTT10=
EXTT11=
EXTT12=
EXTT13=
EXTT14=
EXTT15=
PLAYORDER=
